<svg width="100" height="100" viewBox="0 0 100 100" fill="none" xmlns="http://www.w3.org/2000/svg">
<circle cx="50" cy="50" r="50" fill="#FFF8EA"/>
<g clip-path="url(#clip0_3240_572)">
<path d="M43.9377 56.7782L32.4118 45.2643C31.8723 44.7254 31.5691 43.9943 31.5687 43.2318C31.5683 42.4693 31.8708 41.7379 32.4097 41.1984C32.9486 40.659 33.6797 40.3557 34.4422 40.3553C35.2047 40.3549 35.9361 40.6574 36.4755 41.1963L46.6455 51.3557M45.9675 50.6784L43.2555 47.9692C42.7161 47.4303 42.4128 46.6992 42.4124 45.9367C42.412 45.1742 42.7145 44.4428 43.2534 43.9034C43.7923 43.3639 44.5234 43.0606 45.2859 43.0602C46.0484 43.0598 46.7798 43.3624 47.3193 43.9012L50.7092 47.2877M48.6753 45.2558C48.1358 44.7169 47.8325 43.9858 47.8321 43.2233C47.8317 42.4608 48.1342 41.7294 48.6731 41.19C49.212 40.6505 49.9431 40.3472 50.7056 40.3468C51.4681 40.3464 52.1995 40.649 52.739 41.1878L54.773 43.2197" stroke="#ABAAA8" stroke-width="3.83333" stroke-linecap="round" stroke-linejoin="round"/>
<path d="M54.0951 42.5421C53.5556 42.0032 53.2523 41.2721 53.2519 40.5096C53.2515 39.7471 53.554 39.0157 54.0929 38.4763C54.6318 37.9368 55.3629 37.6335 56.1254 37.6331C56.8879 37.6327 57.6194 37.9353 58.1588 38.4741L64.2608 44.5698C66.4186 46.7253 67.6317 49.6498 67.6333 52.6997C67.6349 55.7497 66.4248 58.6754 64.2692 60.8332L61.5601 63.5452L61.8418 63.2632C60.4961 64.6108 58.8367 65.6031 57.0126 66.151C55.1886 66.6988 53.2571 66.7851 51.3915 66.402L50.7192 66.2614C49.6475 66.0361 45.5747 64.935 38.5009 62.9582C37.7797 62.7567 37.1656 62.2819 36.7892 61.6346C36.4128 60.9874 36.3037 60.2188 36.4851 59.4924C36.6791 58.7189 37.1255 58.0322 37.7536 57.5409C38.3818 57.0496 39.1558 56.7819 39.9533 56.78L43.9378 56.7779M26.5006 54.1483C26.7796 52.3477 27.248 50.5817 27.8979 48.8795M39.1264 35.7166C41.3637 34.423 43.7835 33.4746 46.3039 32.9033" stroke="#ABAAA8" stroke-width="3.83333" stroke-linecap="round" stroke-linejoin="round"/>
</g>
<defs>
<clipPath id="clip0_3240_572">
<rect width="46" height="46" fill="white" transform="translate(15.4731 50.0166) rotate(-45.0298)"/>
</clipPath>
</defs>
</svg>
